<?xml version="1.0" encoding="UTF-8"?>
<svg width="391px" height="76px" viewBox="0 0 391 76" version="1.1" xmlns="http://www.w3.org/2000/svg" xmlns:xlink="http://www.w3.org/1999/xlink">
    <!-- Generator: Sketch 42 (36781) - http://www.bohemiancoding.com/sketch -->
    <title>Page 1</title>
    <desc>Created with Sketch.</desc>
    <defs></defs>
    <g id="Page-1" stroke="none" stroke-width="1" fill="none" fill-rule="evenodd">
        <g id="Artboard" transform="translate(-2.000000, -6.000000)" fill="#ffffff">
            <g id="Page-1" transform="translate(2.000000, 6.000000)">
                <polygon id="Fill-1" points="100.959047 1.22125091 97.8921629 1.41885091 96.2094044 1.61645091 94.525257 1.91077818 91.1604346 2.69841455 89.5776833 3.19034182 87.8956194 3.78245091 84.9259639 5.16081455 83.5411433 5.94845091 82.2535519 6.73539636 79.0880492 8.90277818 77.8983813 9.88594182 76.6114844 10.9692873 75.4259835 12.0526327 74.2363156 13.3328873 73.1473494 14.7112509 72.1576957 15.9921964 71.2666602 17.3691782 70.3770137 18.8470327 69.5839018 20.3255782 68.8914915 21.7999782 68.1983867 23.1797236 67.5066709 25.1467418 67.0108023 26.5264873 66.5163227 28.0043418 66.1204613 29.4801236 65.7245998 31.6488873 65.428051 33.1246691 65.3287384 34.6978691 65.1315021 38.0480873 65.1315021 39.7200873 65.0321895 41.2946691 64.9328769 42.7725236 65.0321895 45.0359418 65.2287313 46.5144873 66.2204684 49.46536 66.9121842 51.4358327 68.3963174 55.5716145 69.385971 57.6381236 70.0790758 59.0178691 70.8714933 60.3976145 71.7625288 61.7759782 72.851495 63.2524509 73.9404613 64.5313236 75.1280456 65.7134691 77.7004506 67.8787782 79.0880492 68.7631418 80.3721682 69.6495782 81.5611416 70.5367055 83.4418307 71.6200509 84.7280332 72.2107782 86.9052712 72.9977236 91.3590599 74.18056 92.8424986 74.6724873 94.525257 75.0649236 96.2094044 75.3606327 97.8921629 75.5575418 99.5742268 75.6563418 104.72112 75.6563418 107.193518 75.4621964 108.975589 75.3606327 112.441808 74.9702691 114.914206 74.4762691 116.597658 74.18056 118.279722 73.6893236 119.763856 73.1946327 122.039712 72.11336 123.328692 71.4224509 125.305221 70.3404873 126.494195 69.5528509 128.375579 68.1737964 129.563857 67.2887418 131.344539 65.7134691 132.136262 64.9244509 132.136262 64.3357964 131.640394 63.4479782 131.146609 62.9567418 130.255573 61.7759782 127.583161 58.72216 126.593507 57.5420873 125.010062 55.5716145 124.020408 54.48896 123.623852 53.8982327 122.53558 52.9150691 121.448698 52.2255418 120.556967 52.0279418 119.962481 52.2255418 118.972827 52.9150691 117.68593 53.8982327 115.805241 55.0796873 114.518344 55.7692145 113.034211 56.4601236 111.450765 57.1461964 108.975589 58.0333236 107.490761 58.52456 106.699039 58.72216 105.313523 59.0178691 103.037667 59.0178691 100.662499 58.9190691 99.0776638 58.6247418 96.9004258 58.0333236 95.416987 57.4425964 93.4369853 56.4601236 92.1500883 55.5716145 90.2700936 53.9963418 89.1804329 52.8155782 87.6976886 50.6495782 86.9052712 49.1724145 86.2121664 47.4983418 85.7169924 46.02256 85.2232073 43.7563782 85.1232002 42.2799055 85.0245821 39.82096 85.0245821 38.2429236 85.2232073 35.2899782 85.4204435 33.8135055 85.7169924 32.1401236 86.2121664 30.56416 86.8052641 29.0876873 87.4983689 27.7079418 88.1914737 26.4283782 89.0825092 25.0493236 90.2700936 23.76976 90.9618094 23.1797236 92.3487135 22.1937964 94.3287153 21.2113236 95.6142233 20.7173236 97.0997455 20.1272873 99.2769835 19.43776 100.859735 19.0439418 103.037667 18.8470327 104.621808 18.8470327 107.097678 19.0439418 108.580422 19.3382691 110.759049 19.9310691 112.14387 20.4223055 114.321802 21.4068509 115.60731 22.0970691 117.488694 23.4747418 118.576271 24.0654691 119.269376 24.2623782 119.962481 24.1642691 120.656975 23.8678691 121.547316 23.0809236 122.039712 22.5896873 123.130067 21.4068509 124.812131 19.43776 125.901097 18.3544145 126.989369 17.46936 128.076946 16.4834327 129.166607 15.4000873 130.058337 14.3160509 130.652824 13.5304873 130.750747 12.7414691 130.554206 11.9559055 129.859017 11.2663782 129.266614 10.7723782 128.176953 9.98612364 125.10868 7.82012364 122.53558 6.04586909 121.15076 5.25892364 118.972827 3.97866909 117.588007 3.38794182 114.123177 2.40408727 111.846626 2.01096 110.460417 1.71525091 106.798351 1.22125091 104.621808 1.12452364 103.137674 1.02434182"></polygon>
                <polygon id="Fill-2" points="358.630131 65.2888364 358.528735 59.7677818 358.430117 58.6816727 358.134262 57.9921455 357.453658 57.4974545 356.248712 57.3724 354.765273 57.3724 353.179049 57.4283636 349.257243 57.5976364 347.671713 57.6964364 337.920326 57.8138909 334.024216 57.8940364 330.838573 57.9506909 326.577159 57.8940364 325.38888 57.6964364 324.892317 57.3033091 324.694387 56.8086182 324.596463 56.3146182 324.495761 55.3293818 325.090943 42.3188727 325.090943 40.7415273 324.795088 35.0221818 324.795088 33.4448364 324.596463 27.7268727 324.596463 26.1488364 324.892317 20.4315636 324.892317 17.7563636 324.694387 12.0390909 324.694387 3.46283636 324.197824 2.77192727 323.505413 2.37741818 322.515065 2.37741818 315.478454 2.47552727 313.893619 2.47552727 309.037719 2.1812 307.551502 2.27792727 306.75839 2.27792727 305.668035 2.47552727 304.973541 2.77192727 304.576985 3.36403636 304.279047 4.64498182 304.182513 5.5328 304.182513 7.01065455 304.379055 9.96912727 304.379055 18.3491636 304.479756 24.6709818 304.479756 26.2469455 304.874923 38.2777455 304.874923 39.8530182 304.676298 51.8789818 304.676298 53.4563273 304.479756 58.6816727 304.479756 60.2590182 304.874923 65.4857455 304.77561 66.9629091 304.279047 70.7076364 304.279047 72.2870545 304.479756 73.4712727 304.973541 74.0613091 305.668035 74.4544364 306.75839 74.6520364 308.145294 74.7522182 309.6329 74.7522182 316.468802 74.6658545 321.522634 74.4544364 327.271653 74.8489455 337.478628 74.4136727 342.150488 74.4136727 354.070779 74.8489455 355.457683 74.7522182 356.248712 74.7522182 357.241143 74.5546182 357.935637 74.2589091 358.528735 73.5673091 358.828756 72.3837818 358.828756 71.4987273 358.925985 69.92 358.72736 66.8661818"></polygon>
                <path d="M24.8042622,1.01853818 L21.6095908,1.41373818 L20.7456405,1.58784727 L18.2697702,2.05421091 L17.2238625,2.34024727 L16.2682391,2.65944727 L15.2834469,3.02010182 L13.8861254,3.62672 L12.924946,4.11450182 L12.0116867,4.64166545 L11.1546813,5.17573818 L9.31427282,6.41108364 L8.43226572,7.02806545 L7.58359432,7.68926545 L6.38698153,8.69522909 L5.46052682,9.62795636 L5.09313961,10.2290473 L4.41739716,11.1880291 L3.47913606,12.68592 L2.91798508,13.75752 L2.19293357,15.4136291 L1.78040426,16.79752 L1.39148774,17.8483927 L1.0616032,18.8481382 L0.726857194,20.00472 L0.456004618,21.17512 L0.255295915,22.3496655 L0.12403659,23.5276655 L-0.000277797513,25.7897018 L0.00250017762,26.9601018 L0.0663936057,28.0158109 L0.144871403,29.0908655 L0.348358082,30.5770109 L0.522676021,31.4551564 L0.710189343,32.4528291 L0.93728881,33.5582836 L1.33176128,34.9318109 L2.28043979,37.78872 L2.84367425,39.2009382 L3.50691581,40.2856655 L4.25488561,41.2591564 L5.0049389,42.15112 L6.48559964,43.6282836 L7.2169016,44.4926109 L8.04404369,45.3949382 L9.03439183,46.2330109 L9.9309833,46.9301382 L11.0741201,47.6127564 L12.1450295,48.1793018 L14.1208643,49.0491564 L15.3473403,49.5466109 L16.2633776,49.8326473 L19.6538963,50.9664291 L20.6817471,51.2386473 L21.7415446,51.4576655 L23.8826689,51.71192 L26.0696298,51.8383564 L29.3844487,51.8383564 L30.6289815,51.7637382 L31.9332409,51.5281382 L32.9881769,51.2766473 L34.0514469,51.0085745 L35.1098554,50.6942109 L36.9280401,50.1207564 L37.9767258,49.8388655 L39.3802977,49.2730109 L40.4143989,48.8170109 L41.4464167,48.2566836 L42.3068945,47.7233018 L43.4986458,46.9190836 L44.2521716,46.3490836 L45.1897382,45.6139564 L45.9849336,44.8746836 L46.9794487,43.8093018 L47.7149176,42.9829745 L48.3864931,42.0972291 L49.0163989,41.1741745 L50.7324931,38.2861745 L51.1728021,37.3949018 L51.8749353,35.9129018 L52.2173208,34.58912 L52.4166405,33.4933382 L52.5492888,32.4694109 L52.6590188,31.2188655 L53.0201556,29.3782836 L53.1514149,28.3640291 L53.2750348,26.9124291 L53.3465677,25.7897018 L53.2041964,23.4316291 L53.0215446,22.4021745 L52.8715339,21.1799564 L52.5027577,19.3227927 L52.1652337,17.7668655 L51.7207577,16.5494836 L51.238779,15.5103564 L50.744994,14.7082109 L50.0199425,13.3878836 L49.6136636,12.7308291 L49.1184895,11.8167564 L48.5212249,10.8591564 L47.67047,9.69497455 L47.0218128,8.82512 L46.1453616,7.94490182 L45.5196227,7.37282909 L44.4056547,6.31988364 L43.4173901,5.55988364 L42.4617666,4.90490182 L40.3546725,3.68130182 L39.2789016,3.22322909 L37.9163048,2.70159273 L36.8676192,2.35475636 L35.9272746,2.10326545 L34.7945552,1.82344727 L33.9125481,1.67006545 L32.7527435,1.40199273 L31.5852995,1.20024727 L30.3775748,1.06206545 L29.0010881,1.00748364 L27.0342817,0.874829091 L24.8042622,1.01853818 Z M26.4293776,35.9391564 L25.1272018,35.78992 L24.3771485,35.6406836 L23.4006902,35.3180291 L22.699946,35.0444291 L21.863081,34.6243564 L21.2755393,34.2409018 L20.352557,33.4615564 L19.7643208,32.8818836 L19.4774948,32.5488655 L18.8989815,31.8047564 L18.7204966,31.5249382 L18.3100508,30.8098473 L18.1343439,30.4554109 L17.9426636,29.92272 L17.8322391,29.5378836 L17.6377808,28.8075927 L17.5724984,28.2762836 L17.4210988,27.4568655 L17.3780401,26.8081018 L17.3710952,26.0750473 L17.4697133,24.5122109 L17.562081,23.84272 L17.6947293,23.2229745 L17.8468234,22.8436655 L18.0739229,22.1354836 L18.628129,20.83312 L18.9885712,20.2265018 L19.5650011,19.4319564 L20.0379513,18.9123927 L20.7650863,18.2753745 L21.2380366,17.9582473 L22.4936813,17.2998109 L23.0694167,17.07112 L24.4667382,16.6869745 L25.1751218,16.5453382 L26.3571503,16.4873018 L27.0947027,16.4417018 L28.6968998,16.5405018 L29.3573634,16.6662473 L30.0532462,16.8845745 L30.6373155,17.1346836 L31.8887933,17.8622109 L32.2596529,18.1662109 L33.4937684,19.4969018 L34.2591005,20.4849018 L34.5487044,20.9450473 L35.1098554,22.0753745 L35.2320863,22.4761018 L35.5578039,24.1225382 L35.663367,25.7917745 L35.6717009,26.6001382 L35.5640544,27.9335927 L35.4800206,28.6272655 L34.989708,30.4077382 L34.4646707,31.5705382 L34.0972835,32.1460655 L33.4986298,32.8908655 L32.981232,33.4677745 L32.1422835,34.3134473 L31.7318377,34.6312655 L30.5859229,35.3636291 L30.1407524,35.5563927 L29.2295766,35.7698836 L28.4468821,35.8700655 L27.1190099,35.9771564 L26.4293776,35.9391564 Z" id="Fill-3"></path>
                <polygon id="Fill-4" points="115.200545 37.0026727 115.041506 36.2108909 114.895663 35.5483091 114.703288 35.0287455 114.495634 34.5851818 114.282425 34.2431818 113.969208 33.6787091 113.794195 33.3988909 113.58168 33.0106 113.322634 32.6015818 112.955941 32.1034364 112.675366 31.7331091 112.295478 31.3579455 112.026709 31.1126727 111.545425 30.6628909 111.1197 30.3388545 110.707171 30.0590364 109.798078 29.5374 109.333462 29.3411818 108.745226 29.1207818 108.293805 28.9729273 107.886831 28.8644545 107.396519 28.7449273 107.017325 28.6792909 106.51729 28.5646 106.013087 28.4789273 105.490133 28.4208909 104.897036 28.3967091 104.048364 28.3414364 103.085796 28.4029273 101.706531 28.5701273 101.334282 28.6440545 100.266151 28.8437273 99.8126465 28.9653273 99.4015062 29.1014364 98.976476 29.2555091 98.3729609 29.5152909 97.9576536 29.7225636 97.5631812 29.9484909 97.194405 30.1758 96.4005986 30.7015818 96.0193215 30.9655091 95.6533233 31.2494727 95.1359254 31.6764545 94.7365915 32.0751091 94.5782469 32.3307455 94.2865595 32.7404545 93.8809751 33.3809273 93.6392913 33.8383091 93.3267691 34.5451091 93.1489787 35.1330727 92.9795222 35.5821636 92.8378455 36.0091455 92.6933908 36.5031455 92.5767158 37.0026727 92.4899041 37.5042727 92.4329556 38.0058727 92.3794796 38.9710727 92.3815631 39.4699091 92.4086483 39.9217636 92.4412895 40.3812182 92.5301847 41.0134 92.6051901 41.3899455 92.6850568 41.8127818 92.7843694 42.2846727 92.9545204 42.8705636 93.3635773 44.0914 93.6073446 44.6938727 93.8941705 45.1547091 94.2150266 45.5713273 94.5400497 45.9506364 95.178984 46.5828182 95.4935897 46.9517636 95.851254 47.3366 96.2790622 47.6931091 96.6658952 47.9888182 97.1589858 48.2810727 97.6215187 48.5228909 98.4750515 48.8959818 99.0028668 49.1053273 99.3994227 49.2296909 100.863416 49.7133273 101.307197 49.8280182 101.764869 49.9226727 102.686462 50.0311455 103.632362 50.0843455 105.06302 50.0843455 105.599863 50.0539455 106.162403 49.9530727 106.617991 49.8466727 107.075663 49.7319818 107.533334 49.5972545 108.318806 49.3526727 108.771616 49.2317636 109.377215 48.9906364 109.822385 48.7964909 110.268945 48.5574364 110.639805 48.3280545 111.155813 47.9867455 111.478753 47.7435455 111.883643 47.4291818 112.228112 47.1127455 112.657309 46.6602 112.973998 46.3071455 113.264297 45.9285273 113.536538 45.5340182 114.276869 44.3007455 114.466465 43.9221273 114.769959 43.2899455 114.917192 42.7234 115.003309 42.2563455 115.059563 41.8210727 115.108178 41.2890727 115.26305 40.5035091 115.320693 40.0703091 115.374169 39.4498727 115.404726 38.9710727 115.345 37.9637273 115.264439 37.5263818"></polygon>
                <g id="Group-23" transform="translate(0.000000, 0.347527)">
                    <path d="M51.7784702,57.9451636 C51.7784702,57.9451636 50.5860243,57.0988 50.1179355,56.9723636 C49.7901345,56.886 48.7560332,56.9723636 48.7560332,56.9723636 L45.1578609,56.9101818 L44.3147455,56.9198545 L40.6457348,56.6600727 L39.4762073,56.6642182 L36.1315252,56.8493818 L30.6109941,56.8493818 L27.0357401,56.7243273 L25.9564968,56.7243273 L22.5194471,56.7844364 L21.5332659,56.7844364 L17.9392606,56.7243273 L16.8607117,56.7243273 L13.422273,56.7844364 L6.94542398,56.7906545 L5.87798703,56.8556 L4.16397638,56.9841091 L3.1666833,57.0725455 L1.1005643,57.7378909 L0.665116696,60.0503636 L0.667894671,64.2462545 L0.797070515,67.0161091 L0.797765009,67.9129091 L0.729010124,69.54 L0.797070515,70.4464727 L0.797070515,71.0689818 L0.935969272,72.4107273 L2.05618774,74.0426545 L4.03757851,74.5663636 L7.87465666,74.4268 L13.3764364,74.4268 L16.9079373,74.4889818 L17.9844027,74.4889818 L21.4874293,74.4268 L27.0808822,74.4268 L30.5214044,74.3646182 L31.686765,74.3625455 L35.090479,74.1815273 L35.9947099,74.2374909 L39.456067,74.4212727 L40.6374009,74.4972727 L44.1348716,74.3045091 L45.2696744,74.2962182 L46.0704258,74.2416364 L47.2996798,74.2333455 L48.7108911,74.1165818 L50.3922606,74.1165818 L51.7340226,72.8149091 L52.1465519,71.6210182 L52.4375448,68.0110182 L52.4375448,64.1854545 L52.4972712,60.7799636 L52.4042091,59.5591273 L51.7784702,57.9451636 Z" id="Fill-5"></path>
                    <polygon id="Fill-7" points="191.364915 15.6654655 194.90336 15.5487018 199.970387 15.5487018 203.22409 15.6032836 204.218606 15.6032836 207.443835 15.5487018 212.596979 15.5487018 215.768732 15.4975745 216.841725 15.4948109 219.978058 15.3414291 220.812145 15.3870291 224.000566 15.5445564 225.090227 15.60812 228.311289 15.4450655 229.357197 15.4381564 230.095444 15.3918655 231.226774 15.3849564 232.528256 15.2861564 234.076282 15.2861564 235.313176 14.1820836 235.693758 13.6259018 235.961138 10.5672473 235.961138 7.78150182 236.016003 5.35088364 235.930581 4.31452 235.353456 2.94721091 233.822792 2.12364727 232.569231 2.12364727 229.254412 2.07113818 228.476579 2.07735636 225.096478 1.85902909 224.020012 1.86179273 220.935765 2.01932 215.851376 2.01932 212.557392 1.91153818 211.562877 1.91153818 208.395291 1.96612 207.486893 1.96612 204.176241 1.91153818 203.182421 1.91153818 200.014835 1.96612 194.046355 1.96888364 193.061563 2.02553818 191.483673 2.13262909 190.564163 2.20724727 188.660556 2.77241091 188.258444 4.73044727 188.262611 7.83193818 188.379286 10.1810291 188.37998 10.4836473 188.317476 11.8633927 188.379286 12.6316836 188.379286 13.1595382 188.507767 13.8393927 189.540479 15.2212109"></polygon>
                    <polygon id="Fill-9" points="300.221398 61.6534109 298.312235 60.8194836 296.744762 60.8194836 292.607663 60.7676655 291.638149 60.7738836 287.420489 60.5514109 286.073865 60.5555564 282.229148 60.7151564 275.88078 60.7172291 271.767988 60.6059927 270.526927 60.6059927 266.575258 60.6591927 265.441149 60.6591927 261.308217 60.6059927 260.067156 60.6059927 256.114098 60.6591927 248.667041 60.66472 247.437787 60.7186109 245.467508 60.8298473 244.31951 60.9044655 241.946425 61.4786109 241.442222 63.4629018 241.446389 66.6030836 241.594316 68.9798109 241.5964 69.29072 241.517228 70.6884291 241.594316 71.4657018 241.594316 71.9997745 241.75405 72.6927564 243.043725 74.0904655 245.321664 74.5395564 249.734478 74.4227927 256.059927 74.4227927 260.121327 74.4773745 261.360998 74.4773745 265.388368 74.4227927 271.820769 74.4227927 275.775911 74.3702836 277.11559 74.3661382 281.029757 74.2134473 282.070803 74.2597382 286.051641 74.4172655 287.410766 74.4808291 291.429801 74.3163927 292.738228 74.3101745 293.659126 74.2618109 295.070338 74.2555927 296.696148 74.1574836 298.628229 74.1574836 300.171394 73.03752 300.644345 72.4730473 300.979091 69.3770836 300.979091 66.5526473 301.047151 64.0909382 300.940199 63.0421382"></polygon>
                    <polygon id="Fill-11" points="183.423725 58.7190509 182.020848 57.7034145 180.870766 57.7034145 177.835134 57.63916 176.104455 57.6446873 173.009097 57.3773055 172.021526 57.38076 169.200493 57.5749055 163.524395 57.5749055 160.506125 57.44156 159.595644 57.44156 155.67731 57.5058145 154.845306 57.5058145 151.811063 57.44156 150.901276 57.44156 147.999681 57.5058145 141.515887 57.5120327 140.615129 57.5811236 139.168498 57.7158509 138.326772 57.8084327 136.584287 58.5027964 136.214816 60.9189055 136.218983 64.7458509 136.327324 67.6428327 136.327324 68.0152327 136.268987 69.7197055 136.327324 70.6662509 136.327324 71.3163964 136.444693 72.1586145 137.389899 73.8630873 139.060157 74.4109782 142.299971 74.2658873 147.960789 74.2658873 150.940168 74.3322145 151.849955 74.3322145 154.806415 74.2658873 160.544322 74.2658873 163.447306 74.2030145 164.431404 74.1967964 167.302441 74.0102509 169.085207 74.0662145 172.006942 74.2596691 173.002846 74.3377418 175.95375 74.13876 177.928891 74.13116 178.605328 74.07036 179.642207 74.0641418 180.834653 73.94116 182.252114 73.94116 183.385528 72.5800691 183.73347 71.8926145 183.977237 68.11956 183.977237 64.6836691 184.027935 61.6837418 183.948763 60.4062509"></polygon>
                    <polygon id="Fill-13" points="390.664976 60.3586473 390.325369 58.6445018 389.415582 57.6164291 388.671085 57.6164291 387.382799 57.5507927 386.92096 57.5583927 384.914568 57.2847927 384.274939 57.2910109 382.446337 57.4858473 379.429456 57.48792 377.471678 57.3504291 376.882053 57.3504291 375.002752 57.4174473 374.46452 57.4174473 372.498408 57.3504291 371.906699 57.3504291 370.028093 57.4174473 366.48687 57.4236655 365.901411 57.4920655 364.965928 57.6267927 364.419362 57.7221382 363.291504 58.4289382 363.04982 60.8782109 363.052598 64.7576655 363.123436 67.69472 363.123436 68.0754109 363.084545 69.8040655 363.123436 70.76512 363.123436 71.4256291 363.200525 72.27752 363.81168 74.0061745 364.89509 74.5623564 366.994545 74.4151927 370.003786 74.4151927 371.93309 74.4808291 372.522715 74.4808291 374.440212 74.4151927 377.497374 74.4151927 379.376674 74.3502473 380.016303 74.3461018 381.877546 74.1554109 382.372026 74.2134473 384.264521 74.4089745 384.910401 74.4870473 386.824426 74.2859927 387.44322 74.27632 387.882834 74.2175927 387.8745 74.2093018 388.646777 74.08632 389.565593 74.08632 390.301061 72.7065745 390.523299 72.0073745 390.683033 68.1825018 390.683033 64.6954836 390.717758 61.6534109"></polygon>
                    <path d="M260.654282,28.3473782 L260.712619,27.4650873 L260.769567,26.6380691 L260.87652,25.8573418 L261.024447,25.1574509 L261.178624,24.7898873 L261.482118,23.8543964 L261.992571,22.6314873 L262.130081,22.3461418 L262.555111,21.6351964 L263.148903,20.8054145 L263.71561,20.1697782 L264.551781,19.4159964 L265.265026,18.94756 L266.52831,18.2704691 L267.356147,17.9505782 L268.820139,17.5450145 L269.577832,17.3888691 L270.832782,17.3294509 L271.650896,17.2741782 L273.412827,17.3867964 L274.214273,17.54156 L275.036553,17.8047964 L277.152676,18.9530873 L277.662434,19.3821418 L278.496521,20.30036 L279.070173,20.9422145 L279.839672,21.9640691 L280.257063,22.6591236 L280.841827,23.8654509 L281.038369,24.5667236 L281.37242,26.2953782 L281.428674,27.1983964 L281.487706,28.2181782 L281.487706,29.1833782 L281.37242,30.5914509 L281.263385,31.4378145 L280.99531,32.7104691 L280.682093,33.5126145 L280.127193,34.7673055 L279.675772,35.49276 L278.956971,36.4013055 L278.39582,37.0334873 L277.516591,37.9385782 L276.909603,38.4077055 L275.716463,39.1870509 L275.089335,39.4634145 L273.949671,39.7314873 L273.078775,39.83996 L271.693955,39.9567236 L270.806392,39.9028327 L269.386846,39.7273418 L268.618042,39.5698145 L267.46796,39.1753055 L266.65193,38.8388327 L265.801175,38.4014873 L265.090708,37.9344327 L263.991324,36.9692327 L263.337111,36.3004327 L263.027367,35.9280327 L262.419685,35.1362509 L262.166889,34.7217055 L261.714774,33.9078145 L261.522399,33.5126145 L261.259186,32.7574509 L261.156401,32.3871236 L260.939718,31.5469782 L260.88277,31.0370873 L260.708452,30.0718873 L260.654282,29.1971964 L260.654282,28.3473782 Z M242.116853,31.7418145 L242.335619,33.3999964 L242.548134,34.4916327 L242.758566,35.6419964 L242.977331,36.7640327 L243.406528,38.3130509 L244.471187,41.6059236 L245.087203,43.1874145 L245.749056,44.2873418 L246.484525,45.2725782 L247.253329,46.2253418 L249.120823,48.1426145 L249.839624,49.0152327 L250.772329,50.0550509 L251.740454,50.8993418 L252.763443,51.7125418 L253.911441,52.4200327 L255.035132,53.03356 L257.326962,54.0657782 L258.56455,54.5887964 L259.706298,54.95636 L263.476704,56.2469782 L264.596923,56.5530509 L265.671999,56.7907236 L268.069392,57.0891964 L270.508454,57.23636 L274.326086,57.23636 L275.637985,57.1555236 L276.9478,56.9192327 L278.187472,56.6200691 L279.288939,56.3361055 L280.546667,55.9567964 L282.722516,55.2575964 L283.816344,54.9584327 L285.321312,54.3393782 L286.347079,53.8861418 L287.481187,53.2636327 L288.419448,52.6715236 L289.745237,51.7629782 L290.619605,51.08796 L291.567589,50.3410873 L292.417649,49.54516 L293.578148,48.2787236 L294.310839,47.4496327 L295.060198,46.4471236 L295.730385,45.4522145 L297.648576,42.1683236 L298.166669,41.0987964 L298.915333,39.4855236 L299.241745,38.2329055 L299.464678,37.0030873 L299.612605,35.8658509 L299.745948,34.2864327 L300.152921,32.1929782 L300.296681,31.0813055 L300.444608,29.3464327 L300.518919,28.1228327 L300.370992,25.5333055 L300.157088,24.2848327 L300.017495,23.0639964 L299.588298,20.8565418 L299.222994,19.1292691 L298.822271,17.9768327 L298.273621,16.7711964 L297.696496,15.8059964 L296.955472,14.4207236 L296.390848,13.4741782 L295.908869,12.5518145 L295.301187,11.5368691 L294.291393,10.1281055 L293.605928,9.18985091 L292.771841,8.33174182 L291.980118,7.58970545 L290.751559,6.39996 L289.791768,5.64341455 L288.78128,4.92279636 L286.369303,3.49123273 L285.319228,3.03039636 L283.812177,2.43828727 L282.667651,2.04446909 L281.562017,1.74323273 L280.404296,1.44406909 L279.221573,1.23057818 L278.052045,0.946614545 L276.786678,0.719305455 L275.508809,0.562469091 L273.834385,0.491305455 L271.663397,0.343450909 L269.308369,0.49476 L265.75256,0.932105455 L264.681651,1.15457818 L262.00021,1.66170545 L260.856379,1.97468727 L259.742411,2.35676 L258.730534,2.72708727 L257.194313,3.40279636 L256.1491,3.94101455 L255.146251,4.53105091 L254.205212,5.12454182 L252.066866,6.58857818 L251.139717,7.24977818 L250.211873,7.98352364 L248.942338,9.05719636 L247.940184,10.0852691 L247.52696,10.7651236 L246.842189,11.7510509 L245.826145,13.3940327 L245.22263,14.5575236 L244.921219,15.2560327 L244.40521,16.46996 L243.910731,18.1398873 L243.511397,19.2280691 L243.149566,20.3431964 L242.776623,21.6393418 L242.483546,22.9271964 L242.260614,24.2150509 L242.11477,25.5111964 L242.041848,26.8266873 L241.97101,28.07516 L241.97101,29.3692327 L242.043932,30.6280691 L242.116853,31.7418145 Z" id="Fill-15"></path>
                    <path d="M219.997852,40.9315273 L219.774919,41.8504364 L219.423505,42.6138909 L219.090843,43.0201455 L218.656784,43.2799273 L217.965763,43.5500727 L216.447599,43.8319636 L210.854146,44.1767273 L209.629059,44.1767273 L205.830873,43.8789455 L205.9788,39.7189818 L205.876015,37.9647636 L205.688502,36.3224727 L205.526685,34.9952364 L205.489876,34.1233091 L209.518635,33.8814909 L210.795114,33.8814909 L215.076669,33.9678545 L216.204526,34.1108727 L217.767832,34.4736 L218.402599,34.7520364 L218.798461,35.0816 L219.214463,35.6481455 L219.606852,36.5000364 L219.842979,37.4051273 L219.983962,38.6515273 L220.060356,39.9262545 L219.997852,40.9315273 Z M237.747029,68.3799636 L235.601043,65.9023636 L234.962804,65.1423636 L232.4911,61.7244364 L231.795912,60.8946545 L229.349905,57.5831273 L228.749862,56.7865091 L227.555333,55.1034545 L227.601169,55.0772 L228.468592,54.5749091 L229.993006,53.7409818 L230.993077,52.9291636 L232.246638,51.6806909 L232.934882,50.8446909 L233.610624,49.9485818 L234.316924,48.9370909 L235.031558,47.7542545 L235.586459,46.5721091 L236.078161,45.3512727 L236.40874,44.0357818 L236.637228,42.7361818 L236.789322,41.4531636 L236.866411,40.2323273 L236.866411,38.9714182 L236.724734,37.4009818 L236.647645,36.1994909 L236.392072,34.8501455 L235.964958,33.4925091 L235.424642,32.3345455 L234.867658,31.2263273 L233.959955,29.7982182 L233.30713,28.8606545 L232.293169,27.4173455 L231.484084,26.4514545 L230.648608,25.6209818 L229.735349,24.8768727 L228.308164,23.9033818 L227.260173,23.2663636 L226.039253,22.6977455 L224.903061,22.2735273 L223.812011,21.8389455 L222.674431,21.4617091 L221.100708,21.0160727 L219.834645,20.7611273 L218.446352,20.6809818 L215.839223,20.6809818 L211.302095,20.4073818 L210.072146,20.4073818 L205.435011,20.6789091 L197.38305,20.4108364 L194.169628,20.2685091 L192.952875,20.3500364 L192.206988,20.4412364 L190.502006,20.8647636 L189.33734,22.4041091 L189.012317,23.8101091 L188.915088,24.3925455 L188.831748,25.6652 L188.972731,27.9935636 L188.972731,29.0610182 L189.040791,32.7110909 L189.040791,33.7668 L188.90467,37.3464 L188.903976,38.4642909 L188.696322,42.1544364 L188.696322,43.3690545 L188.903976,47.0612727 L188.903976,48.032 L188.696322,51.7228364 L188.698406,52.9194909 L188.767161,56.5916727 L188.839388,57.7157818 L189.040791,61.3478909 L189.040791,62.3006545 L188.769939,65.9362182 L188.703267,66.9960727 L188.552562,68.9313091 L188.633818,70.1265818 L188.712296,71.2223636 L189.05607,72.9247636 L190.615209,73.9618182 L192.014613,74.1953455 L195.359296,74.4109091 L196.601745,74.4109091 L199.69502,74.2112364 L202.923027,74.4109091 L204.381464,74.4109091 L205.986439,73.9756364 L207.238612,72.7271636 L207.511548,71.1056 L207.592109,69.8322545 L207.592109,68.6231636 L207.519187,66.8910545 L207.450432,65.7814545 L207.176802,61.9697091 L207.114297,60.9844727 L207.21986,58.1102909 L208.719967,58.2028727 L208.904702,58.2173818 L211.057633,61.0943273 L211.611145,61.8308364 L213.535587,64.9758545 L214.213413,65.8740364 L216.418431,68.8186909 L217.019862,69.6166909 L219.310303,72.8211273 L220.281205,73.7863273 L221.696583,74.4109091 L223.104322,74.4109091 L226.197598,74.2741091 L227.206697,74.2741091 L231.028496,74.3418182 L236.169834,74.3418182 L238.331793,73.6792364 L239.415203,71.2589818 L238.545002,69.3527636 L237.747029,68.3799636 Z" id="Fill-17"></path>
                    <path d="M149.287689,32.0927273 L151.597575,26.1737091 L154.45889,19.0110545 L154.617234,18.8542182 L154.818638,18.9005091 L154.842945,18.9191636 L155.046432,19.4456364 L156.863227,24.7773818 L157.316732,26.1281091 L159.324513,32.3020727 L159.427298,32.6364727 L159.310623,32.6710182 L155.329785,32.4188364 L149.637714,32.4188364 L149.234213,32.3628727 L149.287689,32.0927273 Z M139.35365,53.2842909 L141.032242,52.7281091 L142.241355,51.3062182 L142.758059,49.9299273 L144.269972,45.4887636 L144.391508,45.2421091 L144.730421,45.1923636 L147.754941,45.1923636 L148.763346,45.1253455 L149.692579,45.1232727 L153.709531,45.1902909 L158.795309,45.3250182 L159.818993,45.3250182 L163.774135,45.5868727 L164.370011,45.6373091 L166.395849,51.0961818 L166.850048,52.0910909 L167.665384,53.0341818 L169.24119,53.6387273 L173.709563,53.3526909 L176.631298,53.3526909 L177.552197,53.4128 L179.168979,53.5523636 L180.301004,53.5523636 L181.51359,53.3665091 L182.885909,52.7460727 L183.960986,51.0623273 L183.594293,49.3578545 L182.185165,45.8528727 L180.351007,41.5982545 L179.85375,40.6074909 L178.245996,37.4749091 L176.181961,33.3702182 L175.811101,32.5114182 L174.451282,29.1308 L174.037364,28.1697455 L172.569204,24.9155636 L172.150425,23.9448364 L170.687821,20.7680364 L170.303766,19.8795273 L169.095346,16.4685091 L168.65851,15.4604727 L167.188961,12.2062909 L166.759069,11.2072364 L165.087423,8.08156364 L164.72698,7.18476364 L163.782469,4.56552727 L163.275488,3.26109091 L161.859416,2.23232727 L160.230133,1.94836364 L156.979902,1.8772 L151.735085,1.8772 L148.449435,2.01952727 L147.05003,2.29727273 L145.715213,3.09389091 L145.162396,4.30021818 L143.931753,7.09010909 L143.536586,8.07741818 L142.271218,11.1250182 L141.813547,12.1634545 L140.350249,15.1454182 L139.866187,16.2412 L137.96744,20.2885455 L135.542268,25.7847273 L135.151963,26.6905091 L133.328917,30.4545818 L132.917776,31.4757455 L131.358638,35.1202909 L130.970416,36.0827273 L129.219597,39.8357455 L128.827902,40.7505091 L127.145838,44.4952364 L126.731226,45.5226182 L125.783242,47.6112364 L125.328348,48.8141091 L125.139446,49.5692727 L125.017909,51.1569818 L126.130488,52.6776727 L127.680599,53.4466545 L128.975135,53.3485455 L133.093483,53.0846182 L134.077581,53.0846182 L137.977163,53.2842909 L139.35365,53.2842909 Z" id="Fill-19"></path>
                    <path d="M360.499291,32.8477527 L357.785904,32.9285891 L356.493451,32.8657164 L354.10856,32.8477527 L353.657139,32.7814255 L353.71756,32.4753527 L356.310105,25.7604073 L359.523528,17.6353164 L359.699929,17.4563709 L359.924251,17.50888 L359.952725,17.5275345 L360.181213,18.1272436 L362.222331,24.1754618 L362.7307,25.7085891 L363.386302,27.7426255 L363.464085,28.3133164 C363.464085,28.3133164 363.803693,29.1147709 363.914812,29.3828436 C364.487769,30.7646618 364.984332,32.7130255 364.984332,32.7130255 L365.144066,32.9886982 L364.970442,33.1317164 L362.827929,33.0315345 L360.499291,32.8477527 Z M365.114203,46.2375709 L369.11657,46.5056436 L369.715918,46.5581527 L371.76537,52.1358618 L372.225125,53.1556436 L373.050878,54.11808 L374.644741,54.7364436 L379.161728,54.4421164 L382.120272,54.4421164 L383.052283,54.5029164 L384.687815,54.6480073 L385.83373,54.6480073 L387.058817,54.4580073 L388.447805,53.8237527 L389.535382,52.1013164 L389.164522,50.3616073 L387.737338,46.7792436 L385.883039,42.4278982 L385.380226,41.4150255 L383.754416,38.2147345 L381.665379,34.01608 L381.290352,33.1400073 L379.915254,29.6854618 L379.496474,28.7029891 L378.012341,25.3762618 L377.586617,24.3841164 L376.10665,21.1368436 L375.719817,20.2289891 L374.49473,16.7433527 L374.05581,15.7118255 L372.570982,12.3850982 L372.136229,11.3639345 L370.443053,8.17124364 L370.080528,7.25371636 L369.122821,4.57644364 L368.610979,3.24160727 L367.176849,2.19142545 L365.530899,1.90124364 L362.242471,1.82869818 L356.937233,1.82869818 L353.614775,1.97240727 L352.199396,2.25844364 L350.847217,3.07233455 L350.288149,4.30422545 L349.045006,7.15768 L348.643588,8.16709818 L347.364331,11.2789527 L346.902492,12.3429527 L345.420442,15.3891709 L344.93013,16.5105164 L343.010549,20.6483709 L340.558291,26.2668436 L340.161736,27.1905891 L338.318549,31.0389527 L337.901853,32.0829164 L336.323963,35.8069164 L335.933657,36.7921527 L334.162004,40.6253164 L333.763364,41.5621891 L332.064633,45.3891345 L331.643075,46.4393164 L330.685368,48.5742255 L330.225613,49.8054255 L330.033238,50.5744073 L329.911702,52.1980436 L331.037476,53.7512073 L332.604949,54.5409164 L333.915458,54.4379709 L338.080338,54.1678255 L339.074158,54.1678255 L343.020966,54.3737164 L344.412037,54.3737164 L346.112158,53.8037164 L347.333773,52.3528073 L347.856032,50.9447345 L349.384613,46.4047709 L349.510316,46.15328 L349.850618,46.1028436 L352.909863,46.1028436 L353.930769,46.0344436 L354.870419,46.0323709 L358.933902,46.1028436 L364.078712,46.2375709 L365.114203,46.2375709 Z" id="Fill-21"></path>
                </g>
            </g>
        </g>
    </g>
</svg>
